<svg width="24" height="24" viewBox="0 0 24 24" fill="none" xmlns="http://www.w3.org/2000/svg">
<path d="M2 4V18L6.8 14.4C7.146 14.14 7.567 14 8 14H16C16.5304 14 17.0391 13.7893 17.4142 13.4142C17.7893 13.0391 18 12.5304 18 12V4C18 3.46957 17.7893 2.96086 17.4142 2.58579C17.0391 2.21071 16.5304 2 16 2H4C3.46957 2 2.96086 2.21071 2.58579 2.58579C2.21071 2.96086 2 3.46957 2 4ZM4 14V4H16V12H7.334C6.90107 11.9988 6.47964 12.1393 6.134 12.4L4 14Z" fill="white"/>
<path d="M22 22V9C22 8.46957 21.7893 7.96086 21.4142 7.58579C21.0391 7.21071 20.5304 7 20 7V18L17.866 16.4C17.5204 16.1393 17.0989 15.9988 16.666 16H7C7 16.2626 7.05173 16.5227 7.15224 16.7654C7.25275 17.008 7.40007 17.2285 7.58579 17.4142C7.7715 17.5999 7.99198 17.7472 8.23463 17.8478C8.47728 17.9483 8.73736 18 9 18H16C16.433 18 16.854 18.14 17.2 18.4L22 22Z" fill="white"/>
</svg>
