<svg width="24" height="24" viewBox="0 0 24 24" fill="none" xmlns="http://www.w3.org/2000/svg">
<path d="M19 22H5C4.73478 22 4.48043 21.8946 4.29289 21.7071C4.10536 21.5196 4 21.2652 4 21V13H2L11.292 3.707C11.3849 3.61402 11.4952 3.54026 11.6166 3.48994C11.738 3.43961 11.8681 3.41371 11.9995 3.41371C12.1309 3.41371 12.261 3.43961 12.3824 3.48994C12.5038 3.54026 12.6141 3.61402 12.707 3.707L22 13H20V21C20 21.2652 19.8946 21.5196 19.7071 21.7071C19.5196 21.8946 19.2652 22 19 22ZM10 15H14V20H18V11.828L12 5.828L6 11.828V20H10V15Z" fill="white"/>
</svg>
