<svg width="18" height="20" viewBox="0 0 18 20" fill="none" xmlns="http://www.w3.org/2000/svg">
<path d="M13 15V12H6V8H13V5L18 10L13 15ZM11 0C11.5304 0 12.0391 0.210714 12.4142 0.585786C12.7893 0.960859 13 1.46957 13 2V4H11V2H2V18H11V16H13V18C13 18.5304 12.7893 19.0391 12.4142 19.4142C12.0391 19.7893 11.5304 20 11 20H2C1.46957 20 0.960859 19.7893 0.585786 19.4142C0.210714 19.0391 0 18.5304 0 18V2C0 1.46957 0.210714 0.960859 0.585786 0.585786C0.960859 0.210714 1.46957 0 2 0H11Z" fill="white"/>
</svg>
