<svg width="27" height="29" viewBox="0 0 27 29" fill="none" xmlns="http://www.w3.org/2000/svg">
<path d="M6.75 5.76649C5.85489 5.76649 4.99645 6.12927 4.36351 6.77504C3.73058 7.4208 3.375 8.29664 3.375 9.20989V9.55595L13.5 15.1188L23.625 9.55768V9.20989C23.625 8.29664 23.2694 7.4208 22.6365 6.77504C22.0035 6.12927 21.1451 5.76649 20.25 5.76649H6.75Z" fill="white"/>
<path d="M23.625 11.5118L13.8999 16.8542C13.777 16.9218 13.6396 16.9571 13.5 16.9571C13.3604 16.9571 13.223 16.9218 13.1001 16.8542L3.375 11.5118V19.5401C3.375 20.4534 3.73058 21.3292 4.36351 21.975C4.99645 22.6207 5.85489 22.9835 6.75 22.9835H20.25C21.1451 22.9835 22.0035 22.6207 22.6365 21.975C23.2694 21.3292 23.625 20.4534 23.625 19.5401V11.5118Z" fill="white"/>
</svg>
