<svg width="33" height="33" viewBox="0 0 33 33" fill="none" xmlns="http://www.w3.org/2000/svg">
<g opacity="0.5">
<path d="M31.7142 29.5021L26.4176 24.221C28.1265 22.0439 29.0537 19.3554 29.0503 16.5877C29.0503 14.1228 28.3194 11.7133 26.95 9.66378C25.5806 7.61431 23.6342 6.01694 21.3569 5.07367C19.0797 4.1304 16.5738 3.8836 14.1563 4.36447C11.7388 4.84535 9.51816 6.0323 7.77523 7.77523C6.0323 9.51816 4.84535 11.7388 4.36447 14.1563C3.8836 16.5738 4.1304 19.0797 5.07367 21.3569C6.01694 23.6342 7.61431 25.5806 9.66378 26.95C11.7133 28.3194 14.1228 29.0503 16.5877 29.0503C19.3554 29.0537 22.0439 28.1265 24.221 26.4176L29.5021 31.7142C29.6469 31.8602 29.8192 31.9761 30.009 32.0552C30.1989 32.1343 30.4025 32.175 30.6081 32.175C30.8138 32.175 31.0174 32.1343 31.2072 32.0552C31.3971 31.9761 31.5694 31.8602 31.7142 31.7142C31.8602 31.5694 31.9761 31.3971 32.0552 31.2072C32.1343 31.0174 32.175 30.8138 32.175 30.6081C32.175 30.4025 32.1343 30.1989 32.0552 30.009C31.9761 29.8192 31.8602 29.6469 31.7142 29.5021ZM7.24067 16.5877C7.24067 14.739 7.78886 12.9319 8.81592 11.3947C9.84298 9.85764 11.3028 8.65962 13.0107 7.95217C14.7187 7.24471 16.598 7.05961 18.4112 7.42027C20.2243 7.78092 21.8898 8.67114 23.197 9.97834C24.5042 11.2855 25.3944 12.951 25.755 14.7641C26.1157 16.5773 25.9306 18.4567 25.2231 20.1646C24.5157 21.8725 23.3177 23.3323 21.7806 24.3594C20.2435 25.3865 18.4363 25.9346 16.5877 25.9346C14.1087 25.9346 11.7312 24.9499 9.97834 23.197C8.22544 21.4441 7.24067 19.0666 7.24067 16.5877Z" fill="white"/>
</g>
</svg>
